Coordinates
version=1
nRows=9
nColumns=26
inDegrees=yes

Units are S.I. units (second, meters, Newtons, ...)
Angles are in degrees.

endheader
time	pelvis_tilt	pelvis_list	pelvis_rotation	pelvis_tx	pelvis_ty	pelvis_tz	hip_flexion_r	hip_adduction_r	hip_rotation_r	knee_angle_r	knee_angle_r_beta	ankle_angle_r	subtalar_angle_r	mtp_angle_r	hip_flexion_l	hip_adduction_l	hip_rotation_l	knee_angle_l	knee_angle_l_beta	ankle_angle_l	subtalar_angle_l	mtp_angle_l	lumbar_extension	lumbar_bending	lumbar_rotation
      1.34000000	    -12.94017214	     -6.40109358	     -0.98520396	      0.91684850	      0.89348882	      0.36359998	     23.02268361	      9.10754826	     -5.88486102	     43.84676471	      0.76527041	     23.55730344	      0.00000000	      0.00000000	     44.44248182	    -15.91267818	      9.15204876	    119.24861271	      2.08128092	      5.47395311	      0.00000000	      0.00000000	     -2.92477684	      9.25527578	     -1.69347223
      1.34400000	    -13.06657310	     -6.15068608	     -1.01682668	      0.93293978	      0.89523413	      0.36340210	     21.57220219	      8.84091568	     -5.97187869	     42.98737192	      0.75027118	     23.37975350	      0.00000000	      0.00000000	     45.83526034	    -15.53225897	      8.73468389	    118.48474143	      2.06794885	      5.64970822	      0.00000000	      0.00000000	     -2.57759941	      8.85732736	     -0.86450195
      1.34800000	    -13.10829803	     -5.83644591	     -1.03273855	      0.94922696	      0.89740127	      0.36316876	     19.85063936	      8.54913904	     -5.77653494	     41.66939017	      0.72726806	     22.84424305	      0.00000000	      0.00000000	     47.01345255	    -15.14580516	      8.15447780	    117.56570161	      2.05190858	      5.88810832	      0.00000000	      0.00000000	     -2.29682576	      8.38397024	     -0.13020041
      1.35200000	    -12.75963123	     -5.58899951	     -1.01450424	      0.96593280	      0.90032230	      0.36304182	     17.65442427	      8.30804526	     -5.69452590	     40.23326796	      0.70220299	     21.90489935	      0.00000000	      0.00000000	     47.58185224	    -14.83190987	      7.59991876	    116.42978866	      2.03208316	      6.12500578	      0.00000000	      0.00000000	     -2.45055554	      7.95373243	      0.63033110
      1.35600000	    -13.01079571	     -5.23080952	     -1.02028353	      0.98234040	      0.90245338	      0.36279486	     16.33869736	      7.87072044	     -5.76422377	     39.24159248	      0.68489499	     21.24581693	      0.00000000	      0.00000000	     48.84906047	    -14.35816563	      6.99695593	    115.32328422	      2.01277101	      6.41276669	      0.00000000	      0.00000000	     -1.86755766	      7.43440366	      1.39964820
      1.36000000	    -12.82152330	     -4.80739204	     -0.91808266	      0.99919457	      0.90551582	      0.36245724	     14.36803554	      7.36477851	     -5.72741860	     37.79451129	      0.65963866	     19.82835643	      0.00000000	      0.00000000	     49.45368880	    -13.82699214	      6.28855208	    113.96195288	      1.98901130	      6.63056105	      0.00000000	      0.00000000	     -1.76098178	      6.78868573	      1.98990011
      1.36400000	    -12.86346325	     -4.34546045	     -0.89136923	      1.01603890	      0.90832506	      0.36231338	     12.73614788	      6.82646129	     -5.68082257	     36.50234643	      0.63708613	     18.51081822	      0.00000000	      0.00000000	     50.26570065	    -13.33854211	      5.49301763	    112.52785136	      1.96398151	      6.86852782	      0.00000000	      0.00000000	     -1.36843789	      6.11131898	      2.63901449
      1.36800000	    -12.97240032	     -3.85690849	     -0.81940293	      1.03298607	      0.91118437	      0.36203882	     11.23208441	      6.22980497	     -5.65553026	     35.26855692	      0.61555244	     16.96707063	      0.00000000	      0.00000000	     51.04899455	    -12.79731845	      4.68605525	    110.96498260	      1.93670430	      7.15218973	      0.00000000	      0.00000000	     -0.87334579	      5.41500563	      3.21755431
      1.37200000	    -12.85382440	     -3.39457250	     -0.70395026	      1.05021539	      0.91453542	      0.36169343	      9.37933653	      5.64169392	     -5.82344685	     33.76745467	      0.58935326	     15.16406436	      0.00000000	      0.00000000	     51.47799571	    -12.27526189	      3.86092821	    109.28595300	      1.90739971	      7.55757849	      0.00000000	      0.00000000	     -0.61055594	      4.74032694	      3.79602176
